<?xml version="1.0" encoding="UTF-8"?>
<!DOCTYPE svg PUBLIC "-//W3C//DTD SVG 1.1//EN" "http://www.w3.org/Graphics/SVG/1.1/DTD/svg11.dtd">
<!-- Creator: CorelDRAW -->
<svg xmlns="http://www.w3.org/2000/svg" xml:space="preserve" width="2048px" height="2048px" style="shape-rendering:geometricPrecision; text-rendering:geometricPrecision; image-rendering:optimizeQuality; fill-rule:evenodd; clip-rule:evenodd"
viewBox="0 0 2048 2048"
 xmlns:xlink="http://www.w3.org/1999/xlink">
 <defs>
  <style type="text/css">
   <![CDATA[
    .fil3 {fill:none}
    .fil1 {fill:none;fill-rule:nonzero}
    .fil2 {fill:#ABABAB;fill-rule:nonzero}
    .fil0 {fill:#C7C7C7;fill-rule:nonzero}
   ]]>
  </style>
 </defs>
 <g id="Layer_x0020_1">
  <metadata id="CorelCorpID_0Corel-Layer"/>
  <g id="_428054008">
   <g>
    <path id="_428055304" class="fil0" d="M877.187 1464.75c17.7331,12.091 32.7673,27.7996 44.0268,46.05 14.426,23.3858 22.7516,50.7886 22.7516,79.9666 0,41.1366 -18.4878,78.1477 -45.665,105.325 -29.1024,29.1047 -68.8749,47.2725 -106.931,47.2725l-241.345 0c-38.054,0 -77.8264,-18.1689 -106.932,-47.2737 -27.1772,-27.1772 -45.665,-64.1871 -45.665,-105.324 0,-29.178 8.3256,-56.5796 22.7528,-79.9654 11.2323,-18.2079 26.2252,-33.8859 43.904,-45.9674 1.05827,-52.2792 21.7618,-100.22 55.2697,-136.329 34.3571,-37.0229 82.2237,-61.539 136.2,-65.4567 5.38347,-0.390945 10.4386,-0.589371 15.1429,-0.589371 4.70433,0 9.76064,0.198425 15.1429,0.589371 53.9764,3.91772 101.843,28.4339 136.2,65.4567 33.4193,36.0154 54.0721,83.9162 55.1481,136.245z"/>
    <g>
     <line id="_428055544" class="fil1" x1="747.312" y1="1184.47" x2="747.317" y2= "1184.47" />
     <line id="_428055088" class="fil1" x1="791.285" y1="1122.92" x2="791.285" y2= "1122.91" />
     <line id="_428055016" class="fil1" x1="760.069" y1="1053.95" x2="760.065" y2= "1053.95" />
     <path id="_428055184" class="fil2" d="M753.934 1018.13c26.8134,2.59016 48.9839,19.0524 63.1512,43.5709 12.476,21.5941 18.75,49.9099 15.861,79.8237l-0.0011811 0.011811c-2.90433,30.0591 -14.4614,56.693 -30.7973,75.4465 -17.9811,20.6421 -41.8441,32.465 -67.6064,30.8894l0 0.0141732 0 0 -0.924804 -0.0767717c-0.572835,-0.0425197 -1.14685,-0.0885827 -1.72087,-0.144095l-0.0212599 -0.00236221c-26.8134,-2.58898 -48.9827,-19.0524 -63.15,-43.5709 -12.4689,-21.5788 -18.7406,-49.8756 -15.8646,-79.7705l0.00590552 -0.0673229c2.90433,-30.0603 14.4626,-56.6918 30.7961,-75.4453 17.9811,-20.6421 41.8429,-32.4626 67.604,-30.8882l0 -0.0141732 0.0011811 0 0.924804 0.0767717c0.572835,0.0425197 1.14685,0.0885827 1.72087,0.144095l0.0212599 0.00236221z"/>
     <line id="_428054896" class="fil1" x1="523.688" y1="1198.66" x2="523.693" y2= "1198.66" />
     <path id="_428055280" class="fil2" d="M530.307 1032.31c26.8134,2.59016 48.9839,19.0536 63.1512,43.5709 12.4736,21.5882 18.7477,49.8969 15.8634,79.806l-0.00354331 0.0330709c-2.90433,30.0603 -14.4626,56.6918 -30.7973,75.4453 -17.9799,20.6421 -41.8418,32.4626 -67.604,30.8882l0 0.0141732 -0.0011811 0 -0.923623 -0.0767717c-0.572835,-0.0425197 -1.14685,-0.0885827 -1.72087,-0.144095l-0.0212599 -0.00236221c-26.8134,-2.59016 -48.9839,-19.0524 -63.1512,-43.5709 -12.4748,-21.5917 -18.7477,-49.904 -15.8622,-79.8142l0.00236221 -0.022441c2.90433,-30.0603 14.4614,-56.6918 30.7961,-75.4465 18.6012,-21.3532 43.4953,-33.2681 70.2721,-30.6803z"/>
     <path id="_428054824" class="fil2" d="M257.456 1277.01c4.55079,-27.9898 19.4221,-51.2622 43.5296,-63.1772 24.0591,-11.8902 51.5504,-9.56221 76.5402,3.81614 22.0547,11.8063 42.352,32.5725 55.6595,59.5016l0.0011811 0c13.3146,26.9421 17.4969,55.6536 13.4906,80.289 -4.55197,27.9898 -19.4221,51.2622 -43.5307,63.176 -24.0579,11.8902 -51.5493,9.56339 -76.5402,-3.81614 -22.0536,-11.8051 -42.352,-32.5725 -55.6595,-59.5016 -13.3158,-26.9421 -17.4969,-55.6524 -13.4906,-80.2879z"/>
     <path id="_428054512" class="fil2" d="M1007.16 1166.89c23.7851,12.6461 37.976,36.3366 41.6906,64.4079 3.27047,24.7252 -1.75984,53.2867 -15.8681,79.8225l-0.00590552 0.0106299c-14.178,26.6634 -35.041,46.8555 -57.3071,57.9367 -24.5079,12.1984 -51.078,13.9961 -74.2796,2.68937l-0.00472441 0.0129921 -0.0011811 0 -0.82441 -0.424016c-0.51378,-0.258662 -1.02638,-0.520867 -1.53543,-0.791339l-0.0188977 -0.0106299c-23.7851,-12.6461 -37.9748,-36.3355 -41.6894,-64.4067 -3.27047,-24.7087 1.75512,-53.2524 15.8457,-79.7753l0.0295276 -0.0602363c14.1791,-26.6646 35.0433,-46.8532 57.3071,-57.9355 24.5079,-12.1973 51.0744,-13.9949 74.2772,-2.68937l0.00472441 -0.011811 0.0011811 0 0.82441 0.424016c0.51378,0.257481 1.02638,0.519685 1.53543,0.791339l0.0188977 0.00944883z"/>
    </g>
   </g>
   <g>
    <path id="_428054152" class="fil0" d="M1619.38 751.605c17.7343,12.0921 32.7685,27.7996 44.0268,46.0512 14.426,23.3858 22.7516,50.7874 22.7516,79.9666 0,41.1355 -18.4878,78.1465 -45.665,105.324 -29.1024,29.1047 -68.8749,47.2725 -106.931,47.2725l-241.345 0c-38.054,0 -77.8264,-18.1689 -106.932,-47.2737 -27.1772,-27.1772 -45.6638,-64.1871 -45.6638,-105.323 0,-29.1792 8.32442,-56.5796 22.7516,-79.9654 11.2323,-18.2091 26.2252,-33.887 43.904,-45.9674 1.05945,-52.2804 21.763,-100.22 55.2709,-136.33 34.3559,-37.0229 82.2237,-61.539 136.2,-65.4556 5.38229,-0.390945 10.4386,-0.590552 15.1417,-0.590552 4.70433,0 9.76064,0.199606 15.1429,0.590552 53.9764,3.91654 101.843,28.4327 136.2,65.4556 33.4205,36.0154 54.0721,83.9162 55.1481,136.245z"/>
    <g>
     <line id="_428054128" class="fil1" x1="1489.5" y1="471.325" x2="1489.51" y2= "471.325" />
     <line id="_428054344" class="fil1" x1="1533.48" y1="409.772" x2="1533.48" y2= "409.766" />
     <line id="_428054104" class="fil1" x1="1502.26" y1="340.806" x2="1502.26" y2= "340.806" />
     <path id="_428054056" class="fil2" d="M1496.12 304.984c26.8134,2.59016 48.9839,19.0524 63.1512,43.5709 12.4772,21.5941 18.75,49.9099 15.861,79.8237l-0.0011811 0.011811c-2.90433,30.0591 -14.4602,56.6941 -30.7961,75.4477 -17.9811,20.6421 -41.8441,32.4638 -67.6064,30.8894l0 0.0129921 -0.0011811 0 -0.923623 -0.0767717c-0.574016,-0.0413386 -1.14803,-0.0874016 -1.72205,-0.142913l-0.0212599 -0.00236221c-26.8122,-2.59016 -48.9827,-19.0536 -63.15,-43.5709 -12.4689,-21.5799 -18.7406,-49.8768 -15.8646,-79.7717l0.00590552 -0.0673229c2.90433,-30.0603 14.4626,-56.6918 30.7973,-75.4453 17.9811,-20.6421 41.8418,-32.4626 67.604,-30.8882l0 -0.0129921 0.0011811 0 0.923623 0.0767717c0.572835,0.0413386 1.14685,0.0874016 1.72087,0.142913l0.0212599 0.00236221z"/>
     <line id="_428054632" class="fil1" x1="1265.88" y1="485.51" x2="1265.88" y2= "485.51" />
     <path id="_428054728" class="fil2" d="M1272.5 319.17c26.8134,2.58898 48.9839,19.0524 63.1512,43.5709 12.4736,21.5882 18.7477,49.8957 15.8634,79.8048l-0.00236221 0.0330709c-2.90551,30.0603 -14.4638,56.6918 -30.7973,75.4453 -17.9811,20.6421 -41.8418,32.4638 -67.604,30.8882l0 0.0141732 -0.0011811 0 -0.923623 -0.0767717c-0.574016,-0.0425197 -1.14803,-0.0885827 -1.72205,-0.144095l-0.0212599 -0.00236221c-26.8134,-2.58898 -48.9839,-19.0524 -63.1512,-43.5709 -12.4748,-21.5906 -18.7477,-49.9028 -15.8622,-79.8142l0.00236221 -0.022441c2.90433,-30.0591 14.4626,-56.6918 30.7973,-75.4453 18.6,-21.3543 43.4941,-33.2681 70.2709,-30.6803z"/>
     <path id="_428054248" class="fil2" d="M999.647 563.868c4.55197,-27.9898 19.4232,-51.2634 43.5296,-63.1772 24.0591,-11.8902 51.5504,-9.56339 76.5414,3.81614 22.0536,11.8051 42.3508,32.5713 55.6595,59.5004l0.0011811 0.0011811c13.3146,26.9421 17.4957,55.6524 13.4894,80.289 -4.55197,27.9898 -19.4221,51.2611 -43.5296,63.176 -24.0591,11.8902 -51.5504,9.56221 -76.5414,-3.81614 -22.0536,-11.8063 -42.3508,-32.5736 -55.6595,-59.5016 -13.3158,-26.9421 -17.4957,-55.6536 -13.4906,-80.2879z"/>
     <path id="_428053624" class="fil2" d="M1749.35 453.744c23.7851,12.6461 37.976,36.3355 41.6906,64.4079 3.27166,24.724 -1.75984,53.2867 -15.8681,79.8225l-0.00472441 0.00944883c-14.1791,26.6646 -35.0422,46.8555 -57.3071,57.9367 -24.5079,12.1984 -51.078,13.9961 -74.2808,2.69055l-0.00472441 0.011811 -0.0011811 0 -0.82441 -0.424016c-0.51378,-0.257481 -1.02638,-0.519685 -1.53543,-0.791339l-0.0188977 -0.00944883c-23.7851,-12.6461 -37.9737,-36.3355 -41.6894,-64.4079 -3.26929,-24.7087 1.7563,-53.2524 15.8457,-79.7753l0.0307087 -0.0602363c14.178,-26.6646 35.0422,-46.852 57.3059,-57.9343 24.5079,-12.1984 51.0756,-13.9961 74.2772,-2.68937l0.00590552 -0.0129921 0 0 0.82441 0.424016c0.51378,0.258662 1.02638,0.520867 1.53662,0.791339l0.0177165 0.0106299z"/>
    </g>
   </g>
  </g>
 </g>
 <rect class="fil3" width="2048" height="2048"/>
</svg>
