<?xml version="1.0"?>
<svg width="1280" height="1280" xmlns="http://www.w3.org/2000/svg" xmlns:svg="http://www.w3.org/2000/svg" preserveAspectRatio="xMidYMid meet" version="1.0">
 <metadata>Created by potrace 1.15, written by Peter Selinger 2001-2017</metadata>
 <g class="layer">
  <title>Layer 1</title>
  <g fill="#9e9e9e" id="svg_1" transform="rotate(-116.582 260.128 192.624) matrix(0.0259214 0 0 -0.0259214 61.7754 928.039)">
   <path d="m10966.35,34707.45c-559,-82 -650,-130 -799,-427c-88,-176 -134,-353 -135,-527c-1,-114 1,-123 30,-185c56,-117 163,-203 444,-358c80,-44 183,-103 230,-132c197,-123 355,-173 550,-172c145,0 237,20 348,76c83,42 200,134 263,208c95,111 298,366 336,423c144,212 157,357 53,581c-51,110 -108,192 -204,292c-96,100 -169,158 -252,200c-107,54 -159,62 -390,61c-188,-1 -236,-5 -474,-40z" fill="#bfbfbf" id="svg_2"/>
   <path d="m8513.35,33214.45c-227,-41 -393,-122 -531,-262c-229,-231 -337,-575 -337,-1069c0,-402 69,-808 211,-1235c232,-701 562,-1106 987,-1212c113,-28 326,-30 448,-4c386,83 812,357 1235,792c288,297 473,581 569,871c96,288 95,538 0,918c-106,418 -258,585 -704,775c-145,62 -495,193 -680,256c-189,64 -422,124 -595,154c-160,28 -485,36 -603,16z" fill="#bfbfbf" id="svg_3"/>
   <path d="m12625.35,33108.45c-152,-27 -259,-126 -411,-380c-127,-210 -152,-244 -311,-415c-212,-226 -267,-317 -267,-440c0,-161 108,-254 440,-380c253,-95 303,-126 494,-304c217,-204 329,-258 474,-231c267,48 571,242 745,475c73,98 178,310 211,428c78,271 41,461 -139,711c-211,294 -447,446 -802,517c-118,23 -356,34 -434,19z" fill="#bfbfbf" id="svg_4"/>
   <path d="m11807.35,30757.45c-187,-37 -379,-154 -514,-315c-36,-44 -94,-113 -129,-155c-35,-42 -100,-118 -146,-170c-219,-249 -261,-384 -183,-585c86,-222 363,-532 552,-618c137,-63 266,-59 719,24c447,82 602,136 742,259c128,113 243,369 269,597c27,241 -46,406 -244,552c-86,64 -465,292 -562,338c-123,59 -234,84 -360,83c-55,-1 -120,-5 -144,-10z" fill="#bfbfbf" id="svg_5"/>
   <path d="m5120.35,27867.45c-114,-19 -227,-92 -377,-245c-141,-143 -246,-303 -297,-455c-17,-50 -21,-80 -18,-139c7,-127 64,-223 266,-453c59,-67 125,-144 147,-172c137,-174 234,-261 371,-332c111,-58 207,-84 339,-90c205,-9 319,31 650,230c266,161 342,215 420,298c98,106 125,184 125,359c0,136 -23,251 -74,377c-71,172 -152,282 -266,358c-139,93 -265,131 -665,204c-393,72 -491,82 -621,60z" fill="#bfbfbf" id="svg_6"/>
   <path d="m2536.35,27198.45c-229,-29 -423,-132 -609,-325c-344,-358 -579,-1003 -651,-1790c-24,-258 -8,-619 35,-827c186,-891 931,-1112 2085,-618c429,183 720,368 966,614c201,202 320,395 389,631c71,245 103,592 71,756c-35,175 -143,341 -339,522c-132,123 -470,406 -619,518c-443,335 -822,505 -1168,522c-52,3 -124,2 -160,-3z" fill="#bfbfbf" id="svg_7"/>
   <path d="m6531.35,25788.45c-55,-11 -131,-42 -194,-79c-53,-32 -100,-67 -320,-240c-89,-70 -154,-110 -295,-182c-370,-188 -460,-274 -461,-439c0,-64 4,-83 28,-126c44,-79 104,-141 278,-290c187,-160 217,-198 329,-419c95,-186 122,-226 194,-293c83,-75 127,-87 316,-87c223,0 415,47 616,148c261,132 533,420 615,653c76,218 -14,622 -197,880c-146,206 -486,418 -752,470c-81,15 -97,16 -157,4z" fill="#bfbfbf" id="svg_8"/>
   <path d="m4791.35,23838.45c-146,-23 -279,-79 -492,-206c-73,-43 -185,-108 -250,-144c-212,-117 -327,-220 -369,-331c-25,-63 -25,-258 0,-364c27,-116 71,-236 128,-348c91,-178 158,-246 296,-302c95,-39 199,-60 512,-106c250,-37 307,-43 465,-43c159,-1 189,2 258,22c97,28 144,51 228,113c200,147 373,406 410,611c22,121 -14,245 -112,389c-48,71 -267,345 -342,429c-118,132 -252,219 -397,260c-87,24 -247,33 -335,20z" fill="#bfbfbf" id="svg_9"/>
  </g>
 </g>
 <g class="layer">
  <title>Layer 1 copy</title>
  <g fill="#9e9e9e" id="svg_10" transform="rotate(-116.582 260.128 192.624) matrix(0.0259214 0 0 -0.0259214 61.7754 928.039)">
   <path d="m10966.35,34707.45c-559,-82 -650,-130 -799,-427c-88,-176 -134,-353 -135,-527c-1,-114 1,-123 30,-185c56,-117 163,-203 444,-358c80,-44 183,-103 230,-132c197,-123 355,-173 550,-172c145,0 237,20 348,76c83,42 200,134 263,208c95,111 298,366 336,423c144,212 157,357 53,581c-51,110 -108,192 -204,292c-96,100 -169,158 -252,200c-107,54 -159,62 -390,61c-188,-1 -236,-5 -474,-40z" fill="#bfbfbf" id="svg_11"/>
   <path d="m8513.35,33214.45c-227,-41 -393,-122 -531,-262c-229,-231 -337,-575 -337,-1069c0,-402 69,-808 211,-1235c232,-701 562,-1106 987,-1212c113,-28 326,-30 448,-4c386,83 812,357 1235,792c288,297 473,581 569,871c96,288 95,538 0,918c-106,418 -258,585 -704,775c-145,62 -495,193 -680,256c-189,64 -422,124 -595,154c-160,28 -485,36 -603,16z" fill="#bfbfbf" id="svg_12"/>
   <path d="m12625.35,33108.45c-152,-27 -259,-126 -411,-380c-127,-210 -152,-244 -311,-415c-212,-226 -267,-317 -267,-440c0,-161 108,-254 440,-380c253,-95 303,-126 494,-304c217,-204 329,-258 474,-231c267,48 571,242 745,475c73,98 178,310 211,428c78,271 41,461 -139,711c-211,294 -447,446 -802,517c-118,23 -356,34 -434,19z" fill="#bfbfbf" id="svg_13"/>
   <path d="m11807.35,30757.45c-187,-37 -379,-154 -514,-315c-36,-44 -94,-113 -129,-155c-35,-42 -100,-118 -146,-170c-219,-249 -261,-384 -183,-585c86,-222 363,-532 552,-618c137,-63 266,-59 719,24c447,82 602,136 742,259c128,113 243,369 269,597c27,241 -46,406 -244,552c-86,64 -465,292 -562,338c-123,59 -234,84 -360,83c-55,-1 -120,-5 -144,-10z" fill="#bfbfbf" id="svg_14"/>
   <path d="m5120.35,27867.45c-114,-19 -227,-92 -377,-245c-141,-143 -246,-303 -297,-455c-17,-50 -21,-80 -18,-139c7,-127 64,-223 266,-453c59,-67 125,-144 147,-172c137,-174 234,-261 371,-332c111,-58 207,-84 339,-90c205,-9 319,31 650,230c266,161 342,215 420,298c98,106 125,184 125,359c0,136 -23,251 -74,377c-71,172 -152,282 -266,358c-139,93 -265,131 -665,204c-393,72 -491,82 -621,60z" fill="#bfbfbf" id="svg_15"/>
   <path d="m2536.35,27198.45c-229,-29 -423,-132 -609,-325c-344,-358 -579,-1003 -651,-1790c-24,-258 -8,-619 35,-827c186,-891 931,-1112 2085,-618c429,183 720,368 966,614c201,202 320,395 389,631c71,245 103,592 71,756c-35,175 -143,341 -339,522c-132,123 -470,406 -619,518c-443,335 -822,505 -1168,522c-52,3 -124,2 -160,-3z" fill="#bfbfbf" id="svg_16"/>
   <path d="m6531.35,25788.45c-55,-11 -131,-42 -194,-79c-53,-32 -100,-67 -320,-240c-89,-70 -154,-110 -295,-182c-370,-188 -460,-274 -461,-439c0,-64 4,-83 28,-126c44,-79 104,-141 278,-290c187,-160 217,-198 329,-419c95,-186 122,-226 194,-293c83,-75 127,-87 316,-87c223,0 415,47 616,148c261,132 533,420 615,653c76,218 -14,622 -197,880c-146,206 -486,418 -752,470c-81,15 -97,16 -157,4z" fill="#bfbfbf" id="svg_17"/>
   <path d="m4791.35,23838.45c-146,-23 -279,-79 -492,-206c-73,-43 -185,-108 -250,-144c-212,-117 -327,-220 -369,-331c-25,-63 -25,-258 0,-364c27,-116 71,-236 128,-348c91,-178 158,-246 296,-302c95,-39 199,-60 512,-106c250,-37 307,-43 465,-43c159,-1 189,2 258,22c97,28 144,51 228,113c200,147 373,406 410,611c22,121 -14,245 -112,389c-48,71 -267,345 -342,429c-118,132 -252,219 -397,260c-87,24 -247,33 -335,20z" fill="#bfbfbf" id="svg_18"/>
  </g>
 </g>
 <g class="layer">
  <title>Layer 1 copy copy</title>
  <g fill="#9e9e9e" id="svg_19" transform="rotate(-116.582 491.128 537.624) matrix(0.0259214 0 0 -0.0259214 61.7754 928.039)">
   <path d="m19877.9,21397.99c-559,-82 -650,-130 -799,-427c-88,-176 -134,-353 -135,-527c-1,-114 1,-123 30,-185c56,-117 163,-203 444,-358c80,-44 183,-103 230,-132c197,-123 355,-173 550,-172c145,0 237,20 348,76c83,42 200,134 263,208c95,111 298,366 336,423c144,212 157,357 53,581c-51,110 -108,192 -204,292c-96,100 -169,158 -252,200c-107,54 -159,62 -390,61c-188,-1 -236,-5 -474,-40z" fill="#bfbfbf" id="svg_20"/>
   <path d="m17424.9,19904.99c-227,-41 -393,-122 -531,-262c-229,-231 -337,-575 -337,-1069c0,-402 69,-808 211,-1235c232,-701 562,-1106 987,-1212c113,-28 326,-30 448,-4c386,83 812,357 1235,792c288,297 473,581 569,871c96,288 95,538 0,918c-106,418 -258,585 -704,775c-145,62 -495,193 -680,256c-189,64 -422,124 -595,154c-160,28 -485,36 -603,16z" fill="#bfbfbf" id="svg_21"/>
   <path d="m21536.9,19798.99c-152,-27 -259,-126 -411,-380c-127,-210 -152,-244 -311,-415c-212,-226 -267,-317 -267,-440c0,-161 108,-254 440,-380c253,-95 303,-126 494,-304c217,-204 329,-258 474,-231c267,48 571,242 745,475c73,98 178,310 211,428c78,271 41,461 -139,711c-211,294 -447,446 -802,517c-118,23 -356,34 -434,19z" fill="#bfbfbf" id="svg_22"/>
   <path d="m20718.9,17447.99c-187,-37 -379,-154 -514,-315c-36,-44 -94,-113 -129,-155c-35,-42 -100,-118 -146,-170c-219,-249 -261,-384 -183,-585c86,-222 363,-532 552,-618c137,-63 266,-59 719,24c447,82 602,136 742,259c128,113 243,369 269,597c27,241 -46,406 -244,552c-86,64 -465,292 -562,338c-123,59 -234,84 -360,83c-55,-1 -120,-5 -144,-10z" fill="#bfbfbf" id="svg_23"/>
   <path d="m14031.9,14557.99c-114,-19 -227,-92 -377,-245c-141,-143 -246,-303 -297,-455c-17,-50 -21,-80 -18,-139c7,-127 64,-223 266,-453c59,-67 125,-144 147,-172c137,-174 234,-261 371,-332c111,-58 207,-84 339,-90c205,-9 319,31 650,230c266,161 342,215 420,298c98,106 125,184 125,359c0,136 -23,251 -74,377c-71,172 -152,282 -266,358c-139,93 -265,131 -665,204c-393,72 -491,82 -621,60z" fill="#bfbfbf" id="svg_24"/>
   <path d="m11447.9,13888.99c-229,-29 -423,-132 -609,-325c-344,-358 -579,-1003 -651,-1790c-24,-258 -8,-619 35,-827c186,-891 931,-1112 2085,-618c429,183 720,368 966,614c201,202 320,395 389,631c71,245 103,592 71,756c-35,175 -143,341 -339,522c-132,123 -470,406 -619,518c-443,335 -822,505 -1168,522c-52,3 -124,2 -160,-3z" fill="#bfbfbf" id="svg_25"/>
   <path d="m15442.9,12478.99c-55,-11 -131,-42 -194,-79c-53,-32 -100,-67 -320,-240c-89,-70 -154,-110 -295,-182c-370,-188 -460,-274 -461,-439c0,-64 4,-83 28,-126c44,-79 104,-141 278,-290c187,-160 217,-198 329,-419c95,-186 122,-226 194,-293c83,-75 127,-87 316,-87c223,0 415,47 616,148c261,132 533,420 615,653c76,218 -14,622 -197,880c-146,206 -486,418 -752,470c-81,15 -97,16 -157,4z" fill="#bfbfbf" id="svg_26"/>
   <path d="m13702.9,10528.99c-146,-23 -279,-79 -492,-206c-73,-43 -185,-108 -250,-144c-212,-117 -327,-220 -369,-331c-25,-63 -25,-258 0,-364c27,-116 71,-236 128,-348c91,-178 158,-246 296,-302c95,-39 199,-60 512,-106c250,-37 307,-43 465,-43c159,-1 189,2 258,22c97,28 144,51 228,113c200,147 373,406 410,611c22,121 -14,245 -112,389c-48,71 -267,345 -342,429c-118,132 -252,219 -397,260c-87,24 -247,33 -335,20z" fill="#bfbfbf" id="svg_27"/>
  </g>
 </g>
 <g class="layer">
  <title>Layer 1 copy copy copy</title>
  <g fill="#9e9e9e" id="svg_28" transform="rotate(-116.582 680.128 887.624) matrix(0.0259214 0 0 -0.0259214 61.7754 928.039)">
   <path d="m27169.17,7895.63c-559,-82 -650,-130 -799,-427c-88,-176 -134,-353 -135,-527c-1,-114 1,-123 30,-185c56,-117 163,-203 444,-358c80,-44 183,-103 230,-132c197,-123 355,-173 550,-172c145,0 237,20 348,76c83,42 200,134 263,208c95,111 298,366 336,423c144,212 157,357 53,581c-51,110 -108,192 -204,292c-96,100 -169,158 -252,200c-107,54 -159,62 -390,61c-188,-1 -236,-5 -474,-40z" fill="#bfbfbf" id="svg_29"/>
   <path d="m24716.17,6402.63c-227,-41 -393,-122 -531,-262c-229,-231 -337,-575 -337,-1069c0,-402 69,-808 211,-1235c232,-701 562,-1106 987,-1212c113,-28 326,-30 448,-4c386,83 812,357 1235,792c288,297 473,581 569,871c96,288 95,538 0,918c-106,418 -258,585 -704,775c-145,62 -495,193 -680,256c-189,64 -422,124 -595,154c-160,28 -485,36 -603,16z" fill="#bfbfbf" id="svg_30"/>
   <path d="m28828.17,6296.63c-152,-27 -259,-126 -411,-380c-127,-210 -152,-244 -311,-415c-212,-226 -267,-317 -267,-440c0,-161 108,-254 440,-380c253,-95 303,-126 494,-304c217,-204 329,-258 474,-231c267,48 571,242 745,475c73,98 178,310 211,428c78,271 41,461 -139,711c-211,294 -447,446 -802,517c-118,23 -356,34 -434,19z" fill="#bfbfbf" id="svg_31"/>
   <path d="m28010.17,3945.63c-187,-37 -379,-154 -514,-315c-36,-44 -94,-113 -129,-155c-35,-42 -100,-118 -146,-170c-219,-249 -261,-384 -183,-585c86,-222 363,-532 552,-618c137,-63 266,-59 719,24c447,82 602,136 742,259c128,113 243,369 269,597c27,241 -46,406 -244,552c-86,64 -465,292 -562,338c-123,59 -234,84 -360,83c-55,-1 -120,-5 -144,-10z" fill="#bfbfbf" id="svg_32"/>
   <path d="m21323.17,1055.63c-114,-19 -227,-92 -377,-245c-141,-143 -246,-303 -297,-455c-17,-50 -21,-80 -18,-139c7,-127 64,-223 266,-453c59,-67 125,-144 147,-172c137,-174 234,-261 371,-332c111,-58 207,-84 339,-90c205,-9 319,31 650,230c266,161 342,215 420,298c98,106 125,184 125,359c0,136 -23,251 -74,377c-71,172 -152,282 -266,358c-139,93 -265,131 -665,204c-393,72 -491,82 -621,60z" fill="#bfbfbf" id="svg_33"/>
   <path d="m18739.17,386.63c-229,-29 -423,-132 -609,-325c-344,-358 -579,-1003 -651,-1790c-24,-258 -8,-619 35,-827c186,-891 931,-1112 2085,-618c429,183 720,368 966,614c201,202 320,395 389,631c71,245 103,592 71,756c-35,175 -143,341 -339,522c-132,123 -470,406 -619,518c-443,335 -822,505 -1168,522c-52,3 -124,2 -160,-3z" fill="#bfbfbf" id="svg_34"/>
   <path d="m22734.17,-1023.37c-55,-11 -131,-42 -194,-79c-53,-32 -100,-67 -320,-240c-89,-70 -154,-110 -295,-182c-370,-188 -460,-274 -461,-439c0,-64 4,-83 28,-126c44,-79 104,-141 278,-290c187,-160 217,-198 329,-419c95,-186 122,-226 194,-293c83,-75 127,-87 316,-87c223,0 415,47 616,148c261,132 533,420 615,653c76,218 -14,622 -197,880c-146,206 -486,418 -752,470c-81,15 -97,16 -157,4z" fill="#bfbfbf" id="svg_35"/>
   <path d="m20994.17,-2973.37c-146,-23 -279,-79 -492,-206c-73,-43 -185,-108 -250,-144c-212,-117 -327,-220 -369,-331c-25,-63 -25,-258 0,-364c27,-116 71,-236 128,-348c91,-178 158,-246 296,-302c95,-39 199,-60 512,-106c250,-37 307,-43 465,-43c159,-1 189,2 258,22c97,28 144,51 228,113c200,147 373,406 410,611c22,121 -14,245 -112,389c-48,71 -267,345 -342,429c-118,132 -252,219 -397,260c-87,24 -247,33 -335,20z" fill="#bfbfbf" id="svg_36"/>
  </g>
 </g>
 <g class="layer">
  <title>Layer 1 copy copy copy copy</title>
  <g fill="#9e9e9e" id="svg_37" transform="rotate(-116.582 918.128 1234.62) matrix(0.0259214 0 0 -0.0259214 61.7754 928.039)">
   <path d="m36350.77,-5490.99c-559,-82 -650,-130 -799,-427c-88,-176 -134,-353 -135,-527c-1,-114 1,-123 30,-185c56,-117 163,-203 444,-358c80,-44 183,-103 230,-132c197,-123 355,-173 550,-172c145,0 237,20 348,76c83,42 200,134 263,208c95,111 298,366 336,423c144,212 157,357 53,581c-51,110 -108,192 -204,292c-96,100 -169,158 -252,200c-107,54 -159,62 -390,61c-188,-1 -236,-5 -474,-40z" fill="#bfbfbf" id="svg_38"/>
   <path d="m33897.77,-6983.99c-227,-41 -393,-122 -531,-262c-229,-231 -337,-575 -337,-1069c0,-402 69,-808 211,-1235c232,-701 562,-1106 987,-1212c113,-28 326,-30 448,-4c386,83 812,357 1235,792c288,297 473,581 569,871c96,288 95,538 0,918c-106,418 -258,585 -704,775c-145,62 -495,193 -680,256c-189,64 -422,124 -595,154c-160,28 -485,36 -603,16z" fill="#bfbfbf" id="svg_39"/>
   <path d="m38009.77,-7089.99c-152,-27 -259,-126 -411,-380c-127,-210 -152,-244 -311,-415c-212,-226 -267,-317 -267,-440c0,-161 108,-254 440,-380c253,-95 303,-126 494,-304c217,-204 329,-258 474,-231c267,48 571,242 745,475c73,98 178,310 211,428c78,271 41,461 -139,711c-211,294 -447,446 -802,517c-118,23 -356,34 -434,19z" fill="#bfbfbf" id="svg_40"/>
   <path d="m37191.77,-9440.99c-187,-37 -379,-154 -514,-315c-36,-44 -94,-113 -129,-155c-35,-42 -100,-118 -146,-170c-219,-249 -261,-384 -183,-585c86,-222 363,-532 552,-618c137,-63 266,-59 719,24c447,82 602,136 742,259c128,113 243,369 269,597c27,241 -46,406 -244,552c-86,64 -465,292 -562,338c-123,59 -234,84 -360,83c-55,-1 -120,-5 -144,-10z" fill="#bfbfbf" id="svg_41"/>
   <path d="m30504.77,-12330.99c-114,-19 -227,-92 -377,-245c-141,-143 -246,-303 -297,-455c-17,-50 -21,-80 -18,-139c7,-127 64,-223 266,-453c59,-67 125,-144 147,-172c137,-174 234,-261 371,-332c111,-58 207,-84 339,-90c205,-9 319,31 650,230c266,161 342,215 420,298c98,106 125,184 125,359c0,136 -23,251 -74,377c-71,172 -152,282 -266,358c-139,93 -265,131 -665,204c-393,72 -491,82 -621,60z" fill="#bfbfbf" id="svg_42"/>
   <path d="m27920.77,-12999.99c-229,-29 -423,-132 -609,-325c-344,-358 -579,-1003 -651,-1790c-24,-258 -8,-619 35,-827c186,-891 931,-1112 2085,-618c429,183 720,368 966,614c201,202 320,395 389,631c71,245 103,592 71,756c-35,175 -143,341 -339,522c-132,123 -470,406 -619,518c-443,335 -822,505 -1168,522c-52,3 -124,2 -160,-3z" fill="#bfbfbf" id="svg_43"/>
   <path d="m31915.77,-14409.99c-55,-11 -131,-42 -194,-79c-53,-32 -100,-67 -320,-240c-89,-70 -154,-110 -295,-182c-370,-188 -460,-274 -461,-439c0,-64 4,-83 28,-126c44,-79 104,-141 278,-290c187,-160 217,-198 329,-419c95,-186 122,-226 194,-293c83,-75 127,-87 316,-87c223,0 415,47 616,148c261,132 533,420 615,653c76,218 -14,622 -197,880c-146,206 -486,418 -752,470c-81,15 -97,16 -157,4z" fill="#bfbfbf" id="svg_44"/>
   <path d="m30175.77,-16359.99c-146,-23 -279,-79 -492,-206c-73,-43 -185,-108 -250,-144c-212,-117 -327,-220 -369,-331c-25,-63 -25,-258 0,-364c27,-116 71,-236 128,-348c91,-178 158,-246 296,-302c95,-39 199,-60 512,-106c250,-37 307,-43 465,-43c159,-1 189,2 258,22c97,28 144,51 228,113c200,147 373,406 410,611c22,121 -14,245 -112,389c-48,71 -267,345 -342,429c-118,132 -252,219 -397,260c-87,24 -247,33 -335,20z" fill="#bfbfbf" id="svg_45"/>
  </g>
 </g>
</svg>